<?xml version="1.0" ?><svg enable-background="new 0 0 320 320" id="Layer_1" version="1.1" viewBox="0 0 320 320" xml:space="preserve" xmlns="http://www.w3.org/2000/svg" xmlns:xlink="http://www.w3.org/1999/xlink"><g><path d="M223.3,217.9c-55.1,0-99.8-44.9-99.8-100.2c0-21.5,6.8-41.4,18.3-57.7c-44.7,9.9-78.2,49.9-78.2,97.8   c0,55.3,44.7,100.2,99.8,100.2c33.7,0,63.4-16.8,81.5-42.5C238,217,230.8,217.9,223.3,217.9z" fill="#617FAA"/></g><g><path d="M171.8,248C116.6,248,72,203.1,72,147.8c0-22.2,7.3-42.7,19.5-59.3c-17.2,18-27.8,42.4-27.8,69.3   c0,55.3,44.7,100.2,99.8,100.2c33.3,0,62.7-16.5,80.8-41.7C226.1,235.7,200.4,248,171.8,248z" fill="#6989AF"/></g><g><path d="M161.8,260C105.7,260,60,214.1,60,157.8c0-39.3,22.9-75.5,58.5-92.4l1.7,3.6C86,85.2,64,120,64,157.8   c0,54.1,43.9,98.2,97.8,98.2c30,0,58.3-13.9,76.8-37.5c-20.5,3.5-40.4,0.7-58.9-7.7l1.7-3.7c19.2,8.8,40.1,11.1,61.5,6.4l5-1.1   l-3,4.2C225.8,243.8,194.7,260,161.8,260z"/></g><g><path d="M152.6,192.6c-20.8-19.3-32.7-46.6-32.7-74.9c0-18,4.8-35.8,14-51.5l3.4,2c-8.8,15-13.4,32.1-13.4,49.4   c0,27.2,11.5,53.4,31.4,72L152.6,192.6z"/></g><g><polygon fill="#617FAA" points="193.4,137.7 181.6,128.7 167.5,133.4 172.4,119.4 163.6,107.4 178.4,107.7 187.1,95.6 191.4,109.8    205.5,114.4 193.3,122.9  "/></g><g><g><polygon fill="#6989AF" points="176.4,130.4 180.2,119.4 171.6,107.5 163.5,107.4 172.2,119.4 167.4,133.4   "/></g><g><polygon fill="#6989AF" points="186.3,107.7 189.3,103.5 186.9,95.6 178.4,107.5   "/></g></g><g><polygon fill="#617FAA" points="255.9,174.5 241.2,176.5 234.6,189.8 228.1,176.4 213.5,174.2 224.1,163.9 221.8,149.2    234.8,156.2 248,149.4 245.4,164.1  "/></g><g><g><polygon fill="#6989AF" points="235.4,165 222.9,163.1 213.5,172.2 228.1,174.5 234.6,187.8 240.6,175.7   "/></g></g><g><polygon fill="#617FAA" points="251.8,84.6 242,86 237.5,94.9 233.2,85.9 223.3,84.4 230.5,77.5 228.9,67.6 237.7,72.3 246.5,67.7    244.8,77.6  "/></g><g><g><polygon fill="#6989AF" points="245.9,71.4 246.5,67.7 242.8,69.7   "/></g><g><polygon fill="#6989AF" points="233.3,84.4 240.5,77.5 239.5,71.4 237.7,72.3 228.9,67.6 230.5,77.5 223.3,84.4 233.2,85.9     237.5,94.9 242,86 242.8,85.8   "/></g></g><g><polygon points="195.2,141.8 181.1,131 164.1,136.6 170,119.7 159.5,105.3 177.2,105.7 179.3,102.8 182.5,105.1 179.3,109.7    167.5,109.5 174.5,119 170.6,130.2 181.8,126.5 191.2,133.7 191.2,121.8 200.8,115 189.6,111.4 186.2,100.1 185.7,100.7    182.5,98.3 187.7,91.1 192.8,108.2 209.8,113.7 195.1,123.9  "/></g><g><polygon points="234.4,194.4 226.6,178.3 209,175.6 221.9,163.2 219,145.5 234.7,154 250.5,145.8 247.4,163.4 260,175.9    250.3,177.3 249.7,173.3 251.5,173.1 243.1,164.7 245.1,153 234.6,158.5 224.2,152.9 226.1,164.6 217.6,172.8 229.3,174.6    234.4,185.3 239.7,174.7 244.1,174.1 244.7,178.1 242.4,178.4  "/></g><g><polygon points="235.7,95.8 231.7,87.7 218.9,85.8 228.2,76.7 226.1,63.9 237.5,70 249,64.1 246.8,76.9 256,86 242.1,88 241.6,84    247.4,83.2 242.5,78.3 243.7,71.4 237.5,74.6 231.4,71.3 232.5,78.2 227.5,83 234.3,84.1 239.3,94  "/></g></svg>